PathFileType	4	(X/Y/Z)	pose2sim_tools_200-690.trc
DataRate	CameraRate	NumFrames	NumMarkers	Units	OrigDataRate	OrigDataStartFrame	OrigNumFrames
29	29	9	22	m	29	322	690
Frame#	Time	Hip			RHip			RKnee			RAnkle			RBigToe			RSmallToe			RHeel			LHip			LKnee			LAnkle			LBigToe			LSmallToe			LHeel			Neck			Head			Nose			RShoulder			RElbow			RWrist			LShoulder			LElbow			LWrist			
		X1	Y1	Z1	X2	Y2	Z2	X3	Y3	Z3	X4	Y4	Z4	X5	Y5	Z5	X6	Y6	Z6	X7	Y7	Z7	X8	Y8	Z8	X9	Y9	Z9	X10	Y10	Z10	X11	Y11	Z11	X12	Y12	Z12	X13	Y13	Z13	X14	Y14	Z14	X15	Y15	Z15	X16	Y16	Z16	X17	Y17	Z17	X18	Y18	Z18	X19	Y19	Z19	X20	Y20	Z20	X21	Y21	Z21	X22	Y22	Z22	
322	11.10344827586207	-7.52980513602578	0.5646617832119541	0.050135604636259795	-7.534678512483907	0.5528396419987562	-0.02536735803006284	-7.752827807744411	0.20336785640610155	-0.001658712736750431	-7.888600623089677	-0.16586778718734305	0.02618234343104679	-8.159002105977045	-0.21792998893948173	0.07592003578779016	-8.256092716798811	-0.2479653268152151	0.02887006711745344	-7.871747319163452	-0.23338373833985604	0.02897546938524021	-7.49458717384919	0.5546883914271429	0.12925953795789946	-7.433221022297074	0.20657843459962572	0.10621899055948872	-7.238959209317172	-0.14480813361988837	0.07255183457749005	-7.551014963727581	-0.21996926723531107	0.07785891326116369	-7.3783431876106835	-0.22992905866764912	0.14064296846528096	-7.1471854037427685	-0.20227669585524558	0.05284222363100106	-7.555784721671261	1.1282912204217928	0.06363895925488601	-7.604714184301934	1.3863808626039582	0.06375364549057382	-7.845438206871189	1.2513877906235238	0.08577237281850027	-7.534299977255531	1.022544382045329	-0.08715990278153973	-7.4185529265421515	0.7692443246709452	-0.17278656273148824	-7.494262571403094	0.5519325761195994	-0.22485328949436423	-7.49354508624602	1.0129874361445372	0.2126817959429836	-7.5876802011714215	0.7680890131064297	0.2946827012616238	-7.823104549277542	0.555209245051164	0.3345939748687984
323	11.137931034482758	-7.591687460877414	0.5583398875165955	0.0518515306857734	-7.610249715067503	0.5445660699963263	-0.02190518320075811	-7.773327643204386	0.2045655888248875	0.0054465824110279185	-7.954924231518052	-0.16692752797882038	0.04075134206480506	-8.15081007747232	-0.2200001455978293	0.08276223240660284	-8.279972629854878	-0.25118802236443794	0.03629378036820146	-7.952521007109894	-0.23601435624301076	0.05026898226259083	-7.556313276131592	0.5491078309581546	0.1273287406986583	-7.480257984581391	0.20479098272292015	0.10586617488013866	-7.257530715766816	-0.1399610907477381	0.07121681155033337	-7.501929078460724	-0.2230109998765967	0.06059571660765181	-7.398117247125805	-0.23125164551034255	0.13550275513314952	-7.190953456045228	-0.1991322679972754	0.0561270840707325	-7.590051208716146	1.1226827977641676	0.06067040158228623	-7.653604278536555	1.3876164559478796	0.0631553972720911	-7.837095855940224	1.2475224176871524	0.08831995957772991	-7.58185544655572	1.0160168833225445	-0.08869428719069385	-7.464638675655491	0.7606537247457674	-0.1706672416551854	-7.555489830806682	0.5478651014717689	-0.22101992655073663	-7.527654279764388	1.0073338846079534	0.21048607703198555	-7.650681940326404	0.761869013717694	0.2982997086599199	-7.875139538756242	0.5576249802445885	0.3357083906518281
324	11.172413793103448	-7.648399480182506	0.5582870123571215	0.05043749465845702	-7.665428552987036	0.5372000257284245	-0.023182786235996882	-7.799910304189705	0.20050379995215922	0.012333727637602224	-7.99671152853786	-0.17678885431018085	0.05445277757302018	-8.225156262168971	-0.23581496076892167	0.08436606615131637	-8.29009508932642	-0.2621496303495027	0.04114394215471337	-8.009419666613372	-0.25162735426341837	0.062126997782217724	-7.613540795933061	0.5397463330009982	0.13016143992673013	-7.509196918412042	0.2031893804857395	0.10801386760422602	-7.2600207317681305	-0.1258361383394195	0.07251534739529536	-7.433956980465253	-0.22444286306114727	0.05461608858822832	-7.360493245374588	-0.22727971560980495	0.12940450302208445	-7.206706326045744	-0.19296339606031496	0.05579989292899064	-7.632578405791432	1.1170540414173948	0.06111844303015965	-7.668021634142258	1.3830955871178392	0.05876673937400465	-7.837079893611685	1.234976004350611	0.07705426696424501	-7.650101820950158	1.0089857552630526	-0.09195478318999584	-7.530664849293779	0.7556359331266294	-0.16974265169345984	-7.6069329911213615	0.5407295984876614	-0.22205603124537784	-7.586581636962931	1.0001104526591786	0.2132950839760853	-7.711749658533051	0.7592363800316195	0.30112229959175757	-7.937771728936145	0.5549788565435563	0.3386685223709664
325	11.206896551724139	-7.717776164181836	0.5498586327535053	0.05204735239896682	-7.737938581428885	0.5314391740578776	-0.02160993517545936	-7.842455573906521	0.19150060577054873	0.017715356294477794	-7.993120653271002	-0.18470587305914438	0.05659085050720863	-8.234944592288606	-0.22973430968875433	0.08857837074955639	-8.25427111197484	-0.25862706810639025	0.04261169634808011	-7.991005119687056	-0.2511559593902524	0.06162296176628207	-7.679660531733916	0.534024195423687	0.13173890126222573	-7.573981221358042	0.19795910140094095	0.12222546228726486	-7.286068475887171	-0.10993398439761243	0.07557808113958234	-7.46063347189373	-0.2260647447234008	0.05749622004723137	-7.478824333405005	-0.235120038305815	0.13659209991897867	-7.23400409454037	-0.17044375016769614	0.05482195023535558	-7.687431331776784	1.115273591178583	0.060323195009907196	-7.7515029271196285	1.3824244633637102	0.05855514650187163	-7.966131366350056	1.242245148656653	0.08412633789134596	-7.711247873085468	1.007789677256166	-0.09685171968519471	-7.59374454756316	0.7459205814504978	-0.17023802036361188	-7.6586448676704455	0.5372589847383711	-0.21634061848937655	-7.635457391852679	1.0002137195134797	0.21218483683625283	-7.772739429823639	0.7512628895030264	0.2982075903036376	-7.998092237550173	0.5466101857437969	0.339749763306548
326	11.241379310344827	-7.777440833594159	0.550056022741161	0.04794061381119067	-7.776470002907117	0.5366880330941726	-0.027377147425951626	-7.863170214959189	0.17900275611704508	0.018643829180045438	-8.012976696667469	-0.1831199609903724	0.06177850356996051	-8.17560934395863	-0.23328409360255062	0.09465766473530893	-8.019635410154462	-0.2500184857378811	0.014792014624449446	-7.980459067984967	-0.24644975831076776	0.062047073919335574	-7.773681922571719	0.5415542384596809	0.13206901116874564	-7.6895473764693785	0.19776594789296845	0.1444960848843349	-7.344687987551861	-0.07297915929726445	0.08713444076316482	-7.391671002986353	-0.22576511839751134	0.041612934977612356	-7.525819544241323	-0.22883141214370667	0.130015820354486	-7.281684279627027	-0.11788526557891314	0.05951348585028336	-7.758924566828551	1.1181274427355024	0.058881135560924655	-7.795429320900635	1.3859694315202615	0.056394035245455415	-7.954075937575798	1.2391563029822101	0.06761074945806211	-7.740425012069381	1.0080076153406423	-0.09720377108393673	-7.642659237768211	0.7461797931936102	-0.1694272371331382	-7.728340527264806	0.5341990353429075	-0.21446513841866402	-7.704826838995109	1.0023069071405861	0.2115897582299123	-7.838915707922737	0.7565008995862934	0.2942060907472205	-8.049474711316213	0.5481089680663964	0.34177156844692236
327	11.275862068965518	-7.814155414162774	0.5507787105298273	0.047219847450509764	-7.796078131587645	0.5385177332077553	-0.026256971268198627	-7.8477914014044545	0.1820310863717211	0.007504677278638614	-7.946454176438935	-0.18043430958505657	0.044144012918171584	-8.243651245197128	-0.25221375005131963	0.09946986144278094	-7.984963912958579	-0.25285279564372415	0.00584700946710238	-7.95662806873384	-0.24739367253176822	0.05189074557371953	-7.809597817388062	0.5429558968335577	0.1277600306941586	-7.793181167644321	0.1966226397534248	0.1655838488047963	-7.441688044025841	-0.058504679125102495	0.1067281358039189	-7.470769867822839	-0.22885367106606141	0.055339711985509646	-7.6697944620989045	-0.2281016548071258	0.14956393348482927	-7.3850672009812	-0.104731146540846	0.07778346663525157	-7.802704290315547	1.1220561456132176	0.05728453914743975	-7.8742039044229895	1.404288479744722	0.05460079419109484	-8.037401625118559	1.2514713986724402	0.07431166823115141	-7.800050162502561	1.0098455277875908	-0.0977822928371408	-7.709219529780433	0.7465321760823284	-0.16757604291485922	-7.807061823612361	0.5316912465632725	-0.21461040550912308	-7.76147336839849	1.0100918640949375	0.20947609754754393	-7.875574495061623	0.7579689521985875	0.2907827047351965	-8.063823928879081	0.53892451013333	0.34525015434705403
328	11.310344827586206	-7.859727892528149	0.5544787751325022	0.05056467554513874	-7.849352679193466	0.5430390146385964	-0.03188328826898097	-7.8609601715105875	0.18516854151211512	0.011092439593721705	-7.863702611979881	-0.16358139907550795	0.03400037081898065	-8.201356042104582	-0.23766252748469563	0.08729263862756612	-8.032193968702845	-0.2593603155740768	0.009638217761079707	-7.888207515921425	-0.23950743966522167	0.0439795713616972	-7.867045666204072	0.544675169791495	0.13338392031166124	-7.923725334184889	0.21051738007178256	0.17102344513578607	-7.522312071172	-0.046987902208020405	0.121627357674936	-7.81014967958587	-0.2328089859937114	0.11238196771701367	-7.694751140295641	-0.2129166130805869	0.1588671650672619	-7.418653917932027	-0.07227174614011438	0.09047628141353657	-7.841306606401495	1.1288037041257097	0.057223511948907985	-7.908112266056159	1.401045194299548	0.05530227864176519	-8.055481273234124	1.2535407491360269	0.06373658975226433	-7.830236181097945	1.0138038622189152	-0.09984565650073587	-7.7772003290335565	0.7485856824773659	-0.16614365419645064	-7.867551978174434	0.5383353573359545	-0.21187656507569638	-7.8223252200362445	1.0113136645310443	0.21435288240084968	-7.941046904734611	0.7569932140321558	0.2949043681719281	-8.105614855895023	0.5453778080324713	0.3429093904174001
329	11.344827586206897	-7.900854747456099	0.5619976477925586	0.053002598108662244	-7.871969668547033	0.5497517988791917	-0.03154859369932196	-7.884855130992561	0.19323142423698839	0.015562233769094299	-7.886765008779803	-0.17080449885632576	0.04291672265063655	-8.289578518087326	-0.23815132202224704	0.09768850188908501	-8.053701839161306	-0.2647459128730475	0.0188436810902132	-7.911602567540324	-0.24874029113571677	0.052867770822135354	-7.896651452437325	0.5494656728121597	0.1375179948748779	-7.9726280739587985	0.21340723367710365	0.1647943781103957	-7.592804458782435	-0.02792697837035097	0.13228124039950195	-7.677341539671192	-0.21087664949744825	0.11934905108047837	-7.6377435427621565	-0.1913722480019484	0.16877567717563438	-7.486208742502383	-0.05044401893656879	0.10493682377650437	-7.882998834725088	1.1342229423925678	0.059658657372309284	-7.96573141484859	1.4085521689393425	0.05578054027913223	-8.127645050826658	1.2646055824497986	0.0713432507310726	-7.87893989521641	1.021451146453037	-0.09492116367334587	-7.8234006520835955	0.7525085417169786	-0.16965709760768727	-7.9262877584237925	0.5427327397134354	-0.21306597170381944	-7.8716381524901315	1.019058943303518	0.21642800700250892	-7.963877763837847	0.7628823678689253	0.29606539654704045	-8.146118309766322	0.5456682197537059	0.3426462726204405
330	11.379310344827585	-7.935540302775201	0.5650200312909123	0.05468415047908242	-7.877809394263697	0.5493163807627858	-0.026203691553303834	-7.875242246600346	0.19917801509568464	0.018606936210156418	-7.919657069670562	-0.17483577838246608	0.04914696079754344	-8.265312672870282	-0.22449739283470646	0.08903244728023005	-8.123681728048565	-0.24005038807650433	0.015762279423141783	-7.916018355644035	-0.23889711727008278	0.05847991218379006	-7.944573647383575	0.5500244406785094	0.13779432207581999	-8.023435645333144	0.22038519731761322	0.15632493477429088	-7.719348661696712	-0.036882827925903194	0.15156463290803454	-7.734701054052345	-0.20646519434141303	0.1350491118625356	-7.705955607581015	-0.19734111971517368	0.18717579604153614	-7.608137924951689	-0.0784520572140578	0.13235175754973563	-7.932806224022613	1.1407830667145487	0.05945910638031201	-8.001771106644524	1.4134896144938103	0.05313607216124136	-8.244161515338583	1.2698010595055613	0.06783714396910955	-7.857602027309529	1.0218182899670536	-0.09421108741591613	-7.83364294928531	0.7573752050985949	-0.16907626554014818	-7.998692938110052	0.556135139576385	-0.21318014929284776	-7.933124774143232	1.027729815810974	0.21538576556493141	-8.007204657251606	0.7714740699354029	0.3014277035222538	-8.176839704011	0.545979970672872	0.3411182687796661
